<svg xmlns="http://www.w3.org/2000/svg" xmlns:xlink="http://www.w3.org/1999/xlink" style="margin:auto;background:#7aceff;display:block;z-index:1;position:relative" width="1297" height="1009" preserveAspectRatio="xMidYMid" viewBox="0 0 1297 1009">
<g transform="translate(648.5,504.5) scale(1,1) translate(-648.5,-504.5)"><g transform="translate(-100 860.7707414848282) rotate(0)">
  <animateTransform attributeName="transform" type="translate" keyTimes="0;1" values="-100 860.7707414848282;1297 860.7707414848282" dur="66.66666666666667s" repeatCount="indefinite" begin="-56.58866048078562s"></animateTransform>
  <path d="M84.717,33.597c0.791-2.503,1.186-5.138,1.186-7.773C85.903,11.594,74.308,0,60.079,0 c-9.881,0-18.445,5.534-22.793,13.702c-1.581-0.527-3.426-0.791-5.138-0.791c-9.486,0-17.128,7.642-17.128,17.128 c0,1.186,0.132,2.372,0.395,3.426C6.719,34.783,0,42.424,0,51.515C0,61.66,8.169,69.829,18.314,69.829h63.373 C91.831,69.829,100,61.66,100,51.515C99.868,42.556,93.281,35.046,84.717,33.597z" fill="#bddeff" transform="scale(0.55)"></path>
</g><g transform="translate(-100 376.112021056031) rotate(0)">
  <animateTransform attributeName="transform" type="translate" keyTimes="0;1" values="-100 376.112021056031;1297 376.112021056031" dur="66.66666666666667s" repeatCount="indefinite" begin="-12.567534616531026s"></animateTransform>
  <path d="M84.717,33.597c0.791-2.503,1.186-5.138,1.186-7.773C85.903,11.594,74.308,0,60.079,0 c-9.881,0-18.445,5.534-22.793,13.702c-1.581-0.527-3.426-0.791-5.138-0.791c-9.486,0-17.128,7.642-17.128,17.128 c0,1.186,0.132,2.372,0.395,3.426C6.719,34.783,0,42.424,0,51.515C0,61.66,8.169,69.829,18.314,69.829h63.373 C91.831,69.829,100,61.66,100,51.515C99.868,42.556,93.281,35.046,84.717,33.597z" fill="#bddeff" transform="scale(0.55)"></path>
</g><g transform="translate(-100 110.0462673884559) rotate(0)">
  <animateTransform attributeName="transform" type="translate" keyTimes="0;1" values="-100 110.0462673884559;1297 110.0462673884559" dur="66.66666666666667s" repeatCount="indefinite" begin="-20.56751794404995s"></animateTransform>
  <path d="M84.717,33.597c0.791-2.503,1.186-5.138,1.186-7.773C85.903,11.594,74.308,0,60.079,0 c-9.881,0-18.445,5.534-22.793,13.702c-1.581-0.527-3.426-0.791-5.138-0.791c-9.486,0-17.128,7.642-17.128,17.128 c0,1.186,0.132,2.372,0.395,3.426C6.719,34.783,0,42.424,0,51.515C0,61.66,8.169,69.829,18.314,69.829h63.373 C91.831,69.829,100,61.66,100,51.515C99.868,42.556,93.281,35.046,84.717,33.597z" fill="#bddeff" transform="scale(0.55)"></path>
</g><g transform="translate(-100 190.8520726413662) rotate(0)">
  <animateTransform attributeName="transform" type="translate" keyTimes="0;1" values="-100 190.8520726413662;1297 190.8520726413662" dur="66.66666666666667s" repeatCount="indefinite" begin="-22.046553655958707s"></animateTransform>
  <path d="M84.717,33.597c0.791-2.503,1.186-5.138,1.186-7.773C85.903,11.594,74.308,0,60.079,0 c-9.881,0-18.445,5.534-22.793,13.702c-1.581-0.527-3.426-0.791-5.138-0.791c-9.486,0-17.128,7.642-17.128,17.128 c0,1.186,0.132,2.372,0.395,3.426C6.719,34.783,0,42.424,0,51.515C0,61.66,8.169,69.829,18.314,69.829h63.373 C91.831,69.829,100,61.66,100,51.515C99.868,42.556,93.281,35.046,84.717,33.597z" fill="#bddeff" transform="scale(0.55)"></path>
</g><g transform="translate(-100 221.2794600863728) rotate(0)">
  <animateTransform attributeName="transform" type="translate" keyTimes="0;1" values="-100 221.2794600863728;1297 221.2794600863728" dur="66.66666666666667s" repeatCount="indefinite" begin="-45.8042097826697s"></animateTransform>
  <path d="M84.717,33.597c0.791-2.503,1.186-5.138,1.186-7.773C85.903,11.594,74.308,0,60.079,0 c-9.881,0-18.445,5.534-22.793,13.702c-1.581-0.527-3.426-0.791-5.138-0.791c-9.486,0-17.128,7.642-17.128,17.128 c0,1.186,0.132,2.372,0.395,3.426C6.719,34.783,0,42.424,0,51.515C0,61.66,8.169,69.829,18.314,69.829h63.373 C91.831,69.829,100,61.66,100,51.515C99.868,42.556,93.281,35.046,84.717,33.597z" fill="#bddeff" transform="scale(0.55)"></path>
</g><g transform="translate(-100 708.8744911552346) rotate(0)">
  <animateTransform attributeName="transform" type="translate" keyTimes="0;1" values="-100 708.8744911552346;1297 708.8744911552346" dur="66.66666666666667s" repeatCount="indefinite" begin="-10.547610516948902s"></animateTransform>
  <path d="M84.717,33.597c0.791-2.503,1.186-5.138,1.186-7.773C85.903,11.594,74.308,0,60.079,0 c-9.881,0-18.445,5.534-22.793,13.702c-1.581-0.527-3.426-0.791-5.138-0.791c-9.486,0-17.128,7.642-17.128,17.128 c0,1.186,0.132,2.372,0.395,3.426C6.719,34.783,0,42.424,0,51.515C0,61.66,8.169,69.829,18.314,69.829h63.373 C91.831,69.829,100,61.66,100,51.515C99.868,42.556,93.281,35.046,84.717,33.597z" fill="#bddeff" transform="scale(0.55)"></path>
</g><g transform="translate(-100 854.6564192948455) rotate(0)">
  <animateTransform attributeName="transform" type="translate" keyTimes="0;1" values="-100 854.6564192948455;1297 854.6564192948455" dur="66.66666666666667s" repeatCount="indefinite" begin="-59.610556947972455s"></animateTransform>
  <path d="M84.717,33.597c0.791-2.503,1.186-5.138,1.186-7.773C85.903,11.594,74.308,0,60.079,0 c-9.881,0-18.445,5.534-22.793,13.702c-1.581-0.527-3.426-0.791-5.138-0.791c-9.486,0-17.128,7.642-17.128,17.128 c0,1.186,0.132,2.372,0.395,3.426C6.719,34.783,0,42.424,0,51.515C0,61.66,8.169,69.829,18.314,69.829h63.373 C91.831,69.829,100,61.66,100,51.515C99.868,42.556,93.281,35.046,84.717,33.597z" fill="#bddeff" transform="scale(0.55)"></path>
</g><g transform="translate(-100 755.8629677343273) rotate(0)">
  <animateTransform attributeName="transform" type="translate" keyTimes="0;1" values="-100 755.8629677343273;1297 755.8629677343273" dur="66.66666666666667s" repeatCount="indefinite" begin="-23.295351730942322s"></animateTransform>
  <path d="M84.717,33.597c0.791-2.503,1.186-5.138,1.186-7.773C85.903,11.594,74.308,0,60.079,0 c-9.881,0-18.445,5.534-22.793,13.702c-1.581-0.527-3.426-0.791-5.138-0.791c-9.486,0-17.128,7.642-17.128,17.128 c0,1.186,0.132,2.372,0.395,3.426C6.719,34.783,0,42.424,0,51.515C0,61.66,8.169,69.829,18.314,69.829h63.373 C91.831,69.829,100,61.66,100,51.515C99.868,42.556,93.281,35.046,84.717,33.597z" fill="#bddeff" transform="scale(0.55)"></path>
</g><g transform="translate(-100 957.0259598647339) rotate(0)">
  <animateTransform attributeName="transform" type="translate" keyTimes="0;1" values="-100 957.0259598647339;1297 957.0259598647339" dur="66.66666666666667s" repeatCount="indefinite" begin="-1.4385898707341305s"></animateTransform>
  <path d="M84.717,33.597c0.791-2.503,1.186-5.138,1.186-7.773C85.903,11.594,74.308,0,60.079,0 c-9.881,0-18.445,5.534-22.793,13.702c-1.581-0.527-3.426-0.791-5.138-0.791c-9.486,0-17.128,7.642-17.128,17.128 c0,1.186,0.132,2.372,0.395,3.426C6.719,34.783,0,42.424,0,51.515C0,61.66,8.169,69.829,18.314,69.829h63.373 C91.831,69.829,100,61.66,100,51.515C99.868,42.556,93.281,35.046,84.717,33.597z" fill="#bddeff" transform="scale(0.55)"></path>
</g><g transform="translate(-100 379.8365744380285) rotate(0)">
  <animateTransform attributeName="transform" type="translate" keyTimes="0;1" values="-100 379.8365744380285;1297 379.8365744380285" dur="66.66666666666667s" repeatCount="indefinite" begin="-44.207895055163945s"></animateTransform>
  <path d="M84.717,33.597c0.791-2.503,1.186-5.138,1.186-7.773C85.903,11.594,74.308,0,60.079,0 c-9.881,0-18.445,5.534-22.793,13.702c-1.581-0.527-3.426-0.791-5.138-0.791c-9.486,0-17.128,7.642-17.128,17.128 c0,1.186,0.132,2.372,0.395,3.426C6.719,34.783,0,42.424,0,51.515C0,61.66,8.169,69.829,18.314,69.829h63.373 C91.831,69.829,100,61.66,100,51.515C99.868,42.556,93.281,35.046,84.717,33.597z" fill="#bddeff" transform="scale(0.55)"></path>
</g><g transform="translate(-100 862.1624096518159) rotate(0)">
  <animateTransform attributeName="transform" type="translate" keyTimes="0;1" values="-100 862.1624096518159;1297 862.1624096518159" dur="66.66666666666667s" repeatCount="indefinite" begin="-27.851203379622177s"></animateTransform>
  <path d="M84.717,33.597c0.791-2.503,1.186-5.138,1.186-7.773C85.903,11.594,74.308,0,60.079,0 c-9.881,0-18.445,5.534-22.793,13.702c-1.581-0.527-3.426-0.791-5.138-0.791c-9.486,0-17.128,7.642-17.128,17.128 c0,1.186,0.132,2.372,0.395,3.426C6.719,34.783,0,42.424,0,51.515C0,61.66,8.169,69.829,18.314,69.829h63.373 C91.831,69.829,100,61.66,100,51.515C99.868,42.556,93.281,35.046,84.717,33.597z" fill="#bddeff" transform="scale(0.55)"></path>
</g><g transform="translate(-100 264.88649405585693) rotate(0)">
  <animateTransform attributeName="transform" type="translate" keyTimes="0;1" values="-100 264.88649405585693;1297 264.88649405585693" dur="33.333333333333336s" repeatCount="indefinite" begin="-45.28636360529824s"></animateTransform>
  <path d="M84.717,33.597c0.791-2.503,1.186-5.138,1.186-7.773C85.903,11.594,74.308,0,60.079,0 c-9.881,0-18.445,5.534-22.793,13.702c-1.581-0.527-3.426-0.791-5.138-0.791c-9.486,0-17.128,7.642-17.128,17.128 c0,1.186,0.132,2.372,0.395,3.426C6.719,34.783,0,42.424,0,51.515C0,61.66,8.169,69.829,18.314,69.829h63.373 C91.831,69.829,100,61.66,100,51.515C99.868,42.556,93.281,35.046,84.717,33.597z" fill="#ffffff" transform="scale(0.7)"></path>
</g><g transform="translate(-100 94.65488587389241) rotate(0)">
  <animateTransform attributeName="transform" type="translate" keyTimes="0;1" values="-100 94.65488587389241;1297 94.65488587389241" dur="33.333333333333336s" repeatCount="indefinite" begin="-5.733392648258592s"></animateTransform>
  <path d="M84.717,33.597c0.791-2.503,1.186-5.138,1.186-7.773C85.903,11.594,74.308,0,60.079,0 c-9.881,0-18.445,5.534-22.793,13.702c-1.581-0.527-3.426-0.791-5.138-0.791c-9.486,0-17.128,7.642-17.128,17.128 c0,1.186,0.132,2.372,0.395,3.426C6.719,34.783,0,42.424,0,51.515C0,61.66,8.169,69.829,18.314,69.829h63.373 C91.831,69.829,100,61.66,100,51.515C99.868,42.556,93.281,35.046,84.717,33.597z" fill="#ffffff" transform="scale(0.7)"></path>
</g><g transform="translate(-100 133.84808741891578) rotate(0)">
  <animateTransform attributeName="transform" type="translate" keyTimes="0;1" values="-100 133.84808741891578;1297 133.84808741891578" dur="33.333333333333336s" repeatCount="indefinite" begin="-53.17807243919913s"></animateTransform>
  <path d="M84.717,33.597c0.791-2.503,1.186-5.138,1.186-7.773C85.903,11.594,74.308,0,60.079,0 c-9.881,0-18.445,5.534-22.793,13.702c-1.581-0.527-3.426-0.791-5.138-0.791c-9.486,0-17.128,7.642-17.128,17.128 c0,1.186,0.132,2.372,0.395,3.426C6.719,34.783,0,42.424,0,51.515C0,61.66,8.169,69.829,18.314,69.829h63.373 C91.831,69.829,100,61.66,100,51.515C99.868,42.556,93.281,35.046,84.717,33.597z" fill="#ffffff" transform="scale(0.7)"></path>
</g><g transform="translate(-100 761.3712588840923) rotate(0)">
  <animateTransform attributeName="transform" type="translate" keyTimes="0;1" values="-100 761.3712588840923;1297 761.3712588840923" dur="33.333333333333336s" repeatCount="indefinite" begin="-32.057862650426166s"></animateTransform>
  <path d="M84.717,33.597c0.791-2.503,1.186-5.138,1.186-7.773C85.903,11.594,74.308,0,60.079,0 c-9.881,0-18.445,5.534-22.793,13.702c-1.581-0.527-3.426-0.791-5.138-0.791c-9.486,0-17.128,7.642-17.128,17.128 c0,1.186,0.132,2.372,0.395,3.426C6.719,34.783,0,42.424,0,51.515C0,61.66,8.169,69.829,18.314,69.829h63.373 C91.831,69.829,100,61.66,100,51.515C99.868,42.556,93.281,35.046,84.717,33.597z" fill="#ffffff" transform="scale(0.7)"></path>
</g><g transform="translate(-100 88.19677631996161) rotate(0)">
  <animateTransform attributeName="transform" type="translate" keyTimes="0;1" values="-100 88.19677631996161;1297 88.19677631996161" dur="33.333333333333336s" repeatCount="indefinite" begin="-54.79896402222638s"></animateTransform>
  <path d="M84.717,33.597c0.791-2.503,1.186-5.138,1.186-7.773C85.903,11.594,74.308,0,60.079,0 c-9.881,0-18.445,5.534-22.793,13.702c-1.581-0.527-3.426-0.791-5.138-0.791c-9.486,0-17.128,7.642-17.128,17.128 c0,1.186,0.132,2.372,0.395,3.426C6.719,34.783,0,42.424,0,51.515C0,61.66,8.169,69.829,18.314,69.829h63.373 C91.831,69.829,100,61.66,100,51.515C99.868,42.556,93.281,35.046,84.717,33.597z" fill="#ffffff" transform="scale(0.7)"></path>
</g><g transform="translate(-100 900.7485353675067) rotate(0)">
  <animateTransform attributeName="transform" type="translate" keyTimes="0;1" values="-100 900.7485353675067;1297 900.7485353675067" dur="33.333333333333336s" repeatCount="indefinite" begin="-56.554414603254614s"></animateTransform>
  <path d="M84.717,33.597c0.791-2.503,1.186-5.138,1.186-7.773C85.903,11.594,74.308,0,60.079,0 c-9.881,0-18.445,5.534-22.793,13.702c-1.581-0.527-3.426-0.791-5.138-0.791c-9.486,0-17.128,7.642-17.128,17.128 c0,1.186,0.132,2.372,0.395,3.426C6.719,34.783,0,42.424,0,51.515C0,61.66,8.169,69.829,18.314,69.829h63.373 C91.831,69.829,100,61.66,100,51.515C99.868,42.556,93.281,35.046,84.717,33.597z" fill="#ffffff" transform="scale(0.7)"></path>
</g><g transform="translate(-100 45.28588387455942) rotate(0)">
  <animateTransform attributeName="transform" type="translate" keyTimes="0;1" values="-100 45.28588387455942;1297 45.28588387455942" dur="33.333333333333336s" repeatCount="indefinite" begin="-33.01570620526452s"></animateTransform>
  <path d="M84.717,33.597c0.791-2.503,1.186-5.138,1.186-7.773C85.903,11.594,74.308,0,60.079,0 c-9.881,0-18.445,5.534-22.793,13.702c-1.581-0.527-3.426-0.791-5.138-0.791c-9.486,0-17.128,7.642-17.128,17.128 c0,1.186,0.132,2.372,0.395,3.426C6.719,34.783,0,42.424,0,51.515C0,61.66,8.169,69.829,18.314,69.829h63.373 C91.831,69.829,100,61.66,100,51.515C99.868,42.556,93.281,35.046,84.717,33.597z" fill="#ffffff" transform="scale(0.7)"></path>
</g><g transform="translate(-100 228.71683418059303) rotate(0)">
  <animateTransform attributeName="transform" type="translate" keyTimes="0;1" values="-100 228.71683418059303;1297 228.71683418059303" dur="33.333333333333336s" repeatCount="indefinite" begin="-58.1836500919034s"></animateTransform>
  <path d="M84.717,33.597c0.791-2.503,1.186-5.138,1.186-7.773C85.903,11.594,74.308,0,60.079,0 c-9.881,0-18.445,5.534-22.793,13.702c-1.581-0.527-3.426-0.791-5.138-0.791c-9.486,0-17.128,7.642-17.128,17.128 c0,1.186,0.132,2.372,0.395,3.426C6.719,34.783,0,42.424,0,51.515C0,61.66,8.169,69.829,18.314,69.829h63.373 C91.831,69.829,100,61.66,100,51.515C99.868,42.556,93.281,35.046,84.717,33.597z" fill="#ffffff" transform="scale(0.7)"></path>
</g><g transform="translate(-100 569.1347098570266) rotate(0)">
  <animateTransform attributeName="transform" type="translate" keyTimes="0;1" values="-100 569.1347098570266;1297 569.1347098570266" dur="33.333333333333336s" repeatCount="indefinite" begin="-8.997694237282325s"></animateTransform>
  <path d="M84.717,33.597c0.791-2.503,1.186-5.138,1.186-7.773C85.903,11.594,74.308,0,60.079,0 c-9.881,0-18.445,5.534-22.793,13.702c-1.581-0.527-3.426-0.791-5.138-0.791c-9.486,0-17.128,7.642-17.128,17.128 c0,1.186,0.132,2.372,0.395,3.426C6.719,34.783,0,42.424,0,51.515C0,61.66,8.169,69.829,18.314,69.829h63.373 C91.831,69.829,100,61.66,100,51.515C99.868,42.556,93.281,35.046,84.717,33.597z" fill="#ffffff" transform="scale(0.7)"></path>
</g><g transform="translate(-100 735.726105585045) rotate(0)">
  <animateTransform attributeName="transform" type="translate" keyTimes="0;1" values="-100 735.726105585045;1297 735.726105585045" dur="33.333333333333336s" repeatCount="indefinite" begin="-17.704139978092883s"></animateTransform>
  <path d="M84.717,33.597c0.791-2.503,1.186-5.138,1.186-7.773C85.903,11.594,74.308,0,60.079,0 c-9.881,0-18.445,5.534-22.793,13.702c-1.581-0.527-3.426-0.791-5.138-0.791c-9.486,0-17.128,7.642-17.128,17.128 c0,1.186,0.132,2.372,0.395,3.426C6.719,34.783,0,42.424,0,51.515C0,61.66,8.169,69.829,18.314,69.829h63.373 C91.831,69.829,100,61.66,100,51.515C99.868,42.556,93.281,35.046,84.717,33.597z" fill="#ffffff" transform="scale(0.7)"></path>
</g><g transform="translate(-100 326.27671608775313) rotate(0)">
  <animateTransform attributeName="transform" type="translate" keyTimes="0;1" values="-100 326.27671608775313;1297 326.27671608775313" dur="33.333333333333336s" repeatCount="indefinite" begin="-17.869553917709244s"></animateTransform>
  <path d="M84.717,33.597c0.791-2.503,1.186-5.138,1.186-7.773C85.903,11.594,74.308,0,60.079,0 c-9.881,0-18.445,5.534-22.793,13.702c-1.581-0.527-3.426-0.791-5.138-0.791c-9.486,0-17.128,7.642-17.128,17.128 c0,1.186,0.132,2.372,0.395,3.426C6.719,34.783,0,42.424,0,51.515C0,61.66,8.169,69.829,18.314,69.829h63.373 C91.831,69.829,100,61.66,100,51.515C99.868,42.556,93.281,35.046,84.717,33.597z" fill="#ffffff" transform="scale(0.7)"></path>
</g><g transform="translate(-100 827.92246352363) rotate(0)">
  <animateTransform attributeName="transform" type="translate" keyTimes="0;1" values="-100 827.92246352363;1297 827.92246352363" dur="22.222222222222225s" repeatCount="indefinite" begin="-47.93780216927781s"></animateTransform>
  <path d="M84.717,33.597c0.791-2.503,1.186-5.138,1.186-7.773C85.903,11.594,74.308,0,60.079,0 c-9.881,0-18.445,5.534-22.793,13.702c-1.581-0.527-3.426-0.791-5.138-0.791c-9.486,0-17.128,7.642-17.128,17.128 c0,1.186,0.132,2.372,0.395,3.426C6.719,34.783,0,42.424,0,51.515C0,61.66,8.169,69.829,18.314,69.829h63.373 C91.831,69.829,100,61.66,100,51.515C99.868,42.556,93.281,35.046,84.717,33.597z" fill="#f1f2f3" transform="scale(0.85)"></path>
</g><g transform="translate(-100 291.11408819219156) rotate(0)">
  <animateTransform attributeName="transform" type="translate" keyTimes="0;1" values="-100 291.11408819219156;1297 291.11408819219156" dur="22.222222222222225s" repeatCount="indefinite" begin="-12.851299659423445s"></animateTransform>
  <path d="M84.717,33.597c0.791-2.503,1.186-5.138,1.186-7.773C85.903,11.594,74.308,0,60.079,0 c-9.881,0-18.445,5.534-22.793,13.702c-1.581-0.527-3.426-0.791-5.138-0.791c-9.486,0-17.128,7.642-17.128,17.128 c0,1.186,0.132,2.372,0.395,3.426C6.719,34.783,0,42.424,0,51.515C0,61.66,8.169,69.829,18.314,69.829h63.373 C91.831,69.829,100,61.66,100,51.515C99.868,42.556,93.281,35.046,84.717,33.597z" fill="#f1f2f3" transform="scale(0.85)"></path>
</g><g transform="translate(-100 56.52372176929906) rotate(0)">
  <animateTransform attributeName="transform" type="translate" keyTimes="0;1" values="-100 56.52372176929906;1297 56.52372176929906" dur="22.222222222222225s" repeatCount="indefinite" begin="-19.557050053949183s"></animateTransform>
  <path d="M84.717,33.597c0.791-2.503,1.186-5.138,1.186-7.773C85.903,11.594,74.308,0,60.079,0 c-9.881,0-18.445,5.534-22.793,13.702c-1.581-0.527-3.426-0.791-5.138-0.791c-9.486,0-17.128,7.642-17.128,17.128 c0,1.186,0.132,2.372,0.395,3.426C6.719,34.783,0,42.424,0,51.515C0,61.66,8.169,69.829,18.314,69.829h63.373 C91.831,69.829,100,61.66,100,51.515C99.868,42.556,93.281,35.046,84.717,33.597z" fill="#f1f2f3" transform="scale(0.85)"></path>
</g><g transform="translate(-100 572.9202360517905) rotate(0)">
  <animateTransform attributeName="transform" type="translate" keyTimes="0;1" values="-100 572.9202360517905;1297 572.9202360517905" dur="22.222222222222225s" repeatCount="indefinite" begin="-66.19081398618097s"></animateTransform>
  <path d="M84.717,33.597c0.791-2.503,1.186-5.138,1.186-7.773C85.903,11.594,74.308,0,60.079,0 c-9.881,0-18.445,5.534-22.793,13.702c-1.581-0.527-3.426-0.791-5.138-0.791c-9.486,0-17.128,7.642-17.128,17.128 c0,1.186,0.132,2.372,0.395,3.426C6.719,34.783,0,42.424,0,51.515C0,61.66,8.169,69.829,18.314,69.829h63.373 C91.831,69.829,100,61.66,100,51.515C99.868,42.556,93.281,35.046,84.717,33.597z" fill="#f1f2f3" transform="scale(0.85)"></path>
</g><g transform="translate(-100 101.38491021519066) rotate(0)">
  <animateTransform attributeName="transform" type="translate" keyTimes="0;1" values="-100 101.38491021519066;1297 101.38491021519066" dur="22.222222222222225s" repeatCount="indefinite" begin="-25.614354202197408s"></animateTransform>
  <path d="M84.717,33.597c0.791-2.503,1.186-5.138,1.186-7.773C85.903,11.594,74.308,0,60.079,0 c-9.881,0-18.445,5.534-22.793,13.702c-1.581-0.527-3.426-0.791-5.138-0.791c-9.486,0-17.128,7.642-17.128,17.128 c0,1.186,0.132,2.372,0.395,3.426C6.719,34.783,0,42.424,0,51.515C0,61.66,8.169,69.829,18.314,69.829h63.373 C91.831,69.829,100,61.66,100,51.515C99.868,42.556,93.281,35.046,84.717,33.597z" fill="#f1f2f3" transform="scale(0.85)"></path>
</g><g transform="translate(-100 1006.9420009213335) rotate(0)">
  <animateTransform attributeName="transform" type="translate" keyTimes="0;1" values="-100 1006.9420009213335;1297 1006.9420009213335" dur="22.222222222222225s" repeatCount="indefinite" begin="-18.58748940852175s"></animateTransform>
  <path d="M84.717,33.597c0.791-2.503,1.186-5.138,1.186-7.773C85.903,11.594,74.308,0,60.079,0 c-9.881,0-18.445,5.534-22.793,13.702c-1.581-0.527-3.426-0.791-5.138-0.791c-9.486,0-17.128,7.642-17.128,17.128 c0,1.186,0.132,2.372,0.395,3.426C6.719,34.783,0,42.424,0,51.515C0,61.66,8.169,69.829,18.314,69.829h63.373 C91.831,69.829,100,61.66,100,51.515C99.868,42.556,93.281,35.046,84.717,33.597z" fill="#f1f2f3" transform="scale(0.85)"></path>
</g><g transform="translate(-100 58.60667718298843) rotate(0)">
  <animateTransform attributeName="transform" type="translate" keyTimes="0;1" values="-100 58.60667718298843;1297 58.60667718298843" dur="22.222222222222225s" repeatCount="indefinite" begin="-34.78744674637188s"></animateTransform>
  <path d="M84.717,33.597c0.791-2.503,1.186-5.138,1.186-7.773C85.903,11.594,74.308,0,60.079,0 c-9.881,0-18.445,5.534-22.793,13.702c-1.581-0.527-3.426-0.791-5.138-0.791c-9.486,0-17.128,7.642-17.128,17.128 c0,1.186,0.132,2.372,0.395,3.426C6.719,34.783,0,42.424,0,51.515C0,61.66,8.169,69.829,18.314,69.829h63.373 C91.831,69.829,100,61.66,100,51.515C99.868,42.556,93.281,35.046,84.717,33.597z" fill="#f1f2f3" transform="scale(0.85)"></path>
</g><g transform="translate(-100 303.04155397538204) rotate(0)">
  <animateTransform attributeName="transform" type="translate" keyTimes="0;1" values="-100 303.04155397538204;1297 303.04155397538204" dur="22.222222222222225s" repeatCount="indefinite" begin="-33.9458033674115s"></animateTransform>
  <path d="M84.717,33.597c0.791-2.503,1.186-5.138,1.186-7.773C85.903,11.594,74.308,0,60.079,0 c-9.881,0-18.445,5.534-22.793,13.702c-1.581-0.527-3.426-0.791-5.138-0.791c-9.486,0-17.128,7.642-17.128,17.128 c0,1.186,0.132,2.372,0.395,3.426C6.719,34.783,0,42.424,0,51.515C0,61.66,8.169,69.829,18.314,69.829h63.373 C91.831,69.829,100,61.66,100,51.515C99.868,42.556,93.281,35.046,84.717,33.597z" fill="#f1f2f3" transform="scale(0.85)"></path>
</g><g transform="translate(-100 673.225181201635) rotate(0)">
  <animateTransform attributeName="transform" type="translate" keyTimes="0;1" values="-100 673.225181201635;1297 673.225181201635" dur="22.222222222222225s" repeatCount="indefinite" begin="-34.74487471818894s"></animateTransform>
  <path d="M84.717,33.597c0.791-2.503,1.186-5.138,1.186-7.773C85.903,11.594,74.308,0,60.079,0 c-9.881,0-18.445,5.534-22.793,13.702c-1.581-0.527-3.426-0.791-5.138-0.791c-9.486,0-17.128,7.642-17.128,17.128 c0,1.186,0.132,2.372,0.395,3.426C6.719,34.783,0,42.424,0,51.515C0,61.66,8.169,69.829,18.314,69.829h63.373 C91.831,69.829,100,61.66,100,51.515C99.868,42.556,93.281,35.046,84.717,33.597z" fill="#f1f2f3" transform="scale(0.85)"></path>
</g><g transform="translate(-100 1002.6741037919215) rotate(0)">
  <animateTransform attributeName="transform" type="translate" keyTimes="0;1" values="-100 1002.6741037919215;1297 1002.6741037919215" dur="22.222222222222225s" repeatCount="indefinite" begin="-53.01924644775106s"></animateTransform>
  <path d="M84.717,33.597c0.791-2.503,1.186-5.138,1.186-7.773C85.903,11.594,74.308,0,60.079,0 c-9.881,0-18.445,5.534-22.793,13.702c-1.581-0.527-3.426-0.791-5.138-0.791c-9.486,0-17.128,7.642-17.128,17.128 c0,1.186,0.132,2.372,0.395,3.426C6.719,34.783,0,42.424,0,51.515C0,61.66,8.169,69.829,18.314,69.829h63.373 C91.831,69.829,100,61.66,100,51.515C99.868,42.556,93.281,35.046,84.717,33.597z" fill="#f1f2f3" transform="scale(0.85)"></path>
</g><g transform="translate(-100 962.8858878453793) rotate(0)">
  <animateTransform attributeName="transform" type="translate" keyTimes="0;1" values="-100 962.8858878453793;1297 962.8858878453793" dur="22.222222222222225s" repeatCount="indefinite" begin="-33.717358990636065s"></animateTransform>
  <path d="M84.717,33.597c0.791-2.503,1.186-5.138,1.186-7.773C85.903,11.594,74.308,0,60.079,0 c-9.881,0-18.445,5.534-22.793,13.702c-1.581-0.527-3.426-0.791-5.138-0.791c-9.486,0-17.128,7.642-17.128,17.128 c0,1.186,0.132,2.372,0.395,3.426C6.719,34.783,0,42.424,0,51.515C0,61.66,8.169,69.829,18.314,69.829h63.373 C91.831,69.829,100,61.66,100,51.515C99.868,42.556,93.281,35.046,84.717,33.597z" fill="#f1f2f3" transform="scale(0.85)"></path>
</g><g transform="translate(-100 435.5799021667149) rotate(0)">
  <animateTransform attributeName="transform" type="translate" keyTimes="0;1" values="-100 435.5799021667149;1297 435.5799021667149" dur="16.666666666666668s" repeatCount="indefinite" begin="-31.481273095093595s"></animateTransform>
  <path d="M84.717,33.597c0.791-2.503,1.186-5.138,1.186-7.773C85.903,11.594,74.308,0,60.079,0 c-9.881,0-18.445,5.534-22.793,13.702c-1.581-0.527-3.426-0.791-5.138-0.791c-9.486,0-17.128,7.642-17.128,17.128 c0,1.186,0.132,2.372,0.395,3.426C6.719,34.783,0,42.424,0,51.515C0,61.66,8.169,69.829,18.314,69.829h63.373 C91.831,69.829,100,61.66,100,51.515C99.868,42.556,93.281,35.046,84.717,33.597z" fill="#bddeff" transform="scale(1)"></path>
</g><g transform="translate(-100 288.26713092527024) rotate(0)">
  <animateTransform attributeName="transform" type="translate" keyTimes="0;1" values="-100 288.26713092527024;1297 288.26713092527024" dur="16.666666666666668s" repeatCount="indefinite" begin="-57.490909529762895s"></animateTransform>
  <path d="M84.717,33.597c0.791-2.503,1.186-5.138,1.186-7.773C85.903,11.594,74.308,0,60.079,0 c-9.881,0-18.445,5.534-22.793,13.702c-1.581-0.527-3.426-0.791-5.138-0.791c-9.486,0-17.128,7.642-17.128,17.128 c0,1.186,0.132,2.372,0.395,3.426C6.719,34.783,0,42.424,0,51.515C0,61.66,8.169,69.829,18.314,69.829h63.373 C91.831,69.829,100,61.66,100,51.515C99.868,42.556,93.281,35.046,84.717,33.597z" fill="#bddeff" transform="scale(1)"></path>
</g><g transform="translate(-100 439.0740809612481) rotate(0)">
  <animateTransform attributeName="transform" type="translate" keyTimes="0;1" values="-100 439.0740809612481;1297 439.0740809612481" dur="16.666666666666668s" repeatCount="indefinite" begin="-11.471373231509263s"></animateTransform>
  <path d="M84.717,33.597c0.791-2.503,1.186-5.138,1.186-7.773C85.903,11.594,74.308,0,60.079,0 c-9.881,0-18.445,5.534-22.793,13.702c-1.581-0.527-3.426-0.791-5.138-0.791c-9.486,0-17.128,7.642-17.128,17.128 c0,1.186,0.132,2.372,0.395,3.426C6.719,34.783,0,42.424,0,51.515C0,61.66,8.169,69.829,18.314,69.829h63.373 C91.831,69.829,100,61.66,100,51.515C99.868,42.556,93.281,35.046,84.717,33.597z" fill="#bddeff" transform="scale(1)"></path>
</g><g transform="translate(-100 856.2865274257474) rotate(0)">
  <animateTransform attributeName="transform" type="translate" keyTimes="0;1" values="-100 856.2865274257474;1297 856.2865274257474" dur="16.666666666666668s" repeatCount="indefinite" begin="-41.354169942766994s"></animateTransform>
  <path d="M84.717,33.597c0.791-2.503,1.186-5.138,1.186-7.773C85.903,11.594,74.308,0,60.079,0 c-9.881,0-18.445,5.534-22.793,13.702c-1.581-0.527-3.426-0.791-5.138-0.791c-9.486,0-17.128,7.642-17.128,17.128 c0,1.186,0.132,2.372,0.395,3.426C6.719,34.783,0,42.424,0,51.515C0,61.66,8.169,69.829,18.314,69.829h63.373 C91.831,69.829,100,61.66,100,51.515C99.868,42.556,93.281,35.046,84.717,33.597z" fill="#bddeff" transform="scale(1)"></path>
</g><g transform="translate(-100 996.0687347890598) rotate(0)">
  <animateTransform attributeName="transform" type="translate" keyTimes="0;1" values="-100 996.0687347890598;1297 996.0687347890598" dur="16.666666666666668s" repeatCount="indefinite" begin="-15.671309406655903s"></animateTransform>
  <path d="M84.717,33.597c0.791-2.503,1.186-5.138,1.186-7.773C85.903,11.594,74.308,0,60.079,0 c-9.881,0-18.445,5.534-22.793,13.702c-1.581-0.527-3.426-0.791-5.138-0.791c-9.486,0-17.128,7.642-17.128,17.128 c0,1.186,0.132,2.372,0.395,3.426C6.719,34.783,0,42.424,0,51.515C0,61.66,8.169,69.829,18.314,69.829h63.373 C91.831,69.829,100,61.66,100,51.515C99.868,42.556,93.281,35.046,84.717,33.597z" fill="#bddeff" transform="scale(1)"></path>
</g><g transform="translate(-100 912.5278598432367) rotate(0)">
  <animateTransform attributeName="transform" type="translate" keyTimes="0;1" values="-100 912.5278598432367;1297 912.5278598432367" dur="16.666666666666668s" repeatCount="indefinite" begin="-56.70388005665606s"></animateTransform>
  <path d="M84.717,33.597c0.791-2.503,1.186-5.138,1.186-7.773C85.903,11.594,74.308,0,60.079,0 c-9.881,0-18.445,5.534-22.793,13.702c-1.581-0.527-3.426-0.791-5.138-0.791c-9.486,0-17.128,7.642-17.128,17.128 c0,1.186,0.132,2.372,0.395,3.426C6.719,34.783,0,42.424,0,51.515C0,61.66,8.169,69.829,18.314,69.829h63.373 C91.831,69.829,100,61.66,100,51.515C99.868,42.556,93.281,35.046,84.717,33.597z" fill="#bddeff" transform="scale(1)"></path>
</g><g transform="translate(-100 121.29802445202559) rotate(0)">
  <animateTransform attributeName="transform" type="translate" keyTimes="0;1" values="-100 121.29802445202559;1297 121.29802445202559" dur="16.666666666666668s" repeatCount="indefinite" begin="-16.302675899072927s"></animateTransform>
  <path d="M84.717,33.597c0.791-2.503,1.186-5.138,1.186-7.773C85.903,11.594,74.308,0,60.079,0 c-9.881,0-18.445,5.534-22.793,13.702c-1.581-0.527-3.426-0.791-5.138-0.791c-9.486,0-17.128,7.642-17.128,17.128 c0,1.186,0.132,2.372,0.395,3.426C6.719,34.783,0,42.424,0,51.515C0,61.66,8.169,69.829,18.314,69.829h63.373 C91.831,69.829,100,61.66,100,51.515C99.868,42.556,93.281,35.046,84.717,33.597z" fill="#bddeff" transform="scale(1)"></path>
</g><g transform="translate(-100 67.75531775822787) rotate(0)">
  <animateTransform attributeName="transform" type="translate" keyTimes="0;1" values="-100 67.75531775822787;1297 67.75531775822787" dur="16.666666666666668s" repeatCount="indefinite" begin="-28.935626421296192s"></animateTransform>
  <path d="M84.717,33.597c0.791-2.503,1.186-5.138,1.186-7.773C85.903,11.594,74.308,0,60.079,0 c-9.881,0-18.445,5.534-22.793,13.702c-1.581-0.527-3.426-0.791-5.138-0.791c-9.486,0-17.128,7.642-17.128,17.128 c0,1.186,0.132,2.372,0.395,3.426C6.719,34.783,0,42.424,0,51.515C0,61.66,8.169,69.829,18.314,69.829h63.373 C91.831,69.829,100,61.66,100,51.515C99.868,42.556,93.281,35.046,84.717,33.597z" fill="#bddeff" transform="scale(1)"></path>
</g><g transform="translate(-100 84.07808771400077) rotate(0)">
  <animateTransform attributeName="transform" type="translate" keyTimes="0;1" values="-100 84.07808771400077;1297 84.07808771400077" dur="16.666666666666668s" repeatCount="indefinite" begin="-36.74593328307774s"></animateTransform>
  <path d="M84.717,33.597c0.791-2.503,1.186-5.138,1.186-7.773C85.903,11.594,74.308,0,60.079,0 c-9.881,0-18.445,5.534-22.793,13.702c-1.581-0.527-3.426-0.791-5.138-0.791c-9.486,0-17.128,7.642-17.128,17.128 c0,1.186,0.132,2.372,0.395,3.426C6.719,34.783,0,42.424,0,51.515C0,61.66,8.169,69.829,18.314,69.829h63.373 C91.831,69.829,100,61.66,100,51.515C99.868,42.556,93.281,35.046,84.717,33.597z" fill="#bddeff" transform="scale(1)"></path>
</g><g transform="translate(-100 664.398676570474) rotate(0)">
  <animateTransform attributeName="transform" type="translate" keyTimes="0;1" values="-100 664.398676570474;1297 664.398676570474" dur="16.666666666666668s" repeatCount="indefinite" begin="-25.384504690175298s"></animateTransform>
  <path d="M84.717,33.597c0.791-2.503,1.186-5.138,1.186-7.773C85.903,11.594,74.308,0,60.079,0 c-9.881,0-18.445,5.534-22.793,13.702c-1.581-0.527-3.426-0.791-5.138-0.791c-9.486,0-17.128,7.642-17.128,17.128 c0,1.186,0.132,2.372,0.395,3.426C6.719,34.783,0,42.424,0,51.515C0,61.66,8.169,69.829,18.314,69.829h63.373 C91.831,69.829,100,61.66,100,51.515C99.868,42.556,93.281,35.046,84.717,33.597z" fill="#bddeff" transform="scale(1)"></path>
</g><g transform="translate(-100 845.9116847780328) rotate(0)">
  <animateTransform attributeName="transform" type="translate" keyTimes="0;1" values="-100 845.9116847780328;1297 845.9116847780328" dur="16.666666666666668s" repeatCount="indefinite" begin="-60.09056929081223s"></animateTransform>
  <path d="M84.717,33.597c0.791-2.503,1.186-5.138,1.186-7.773C85.903,11.594,74.308,0,60.079,0 c-9.881,0-18.445,5.534-22.793,13.702c-1.581-0.527-3.426-0.791-5.138-0.791c-9.486,0-17.128,7.642-17.128,17.128 c0,1.186,0.132,2.372,0.395,3.426C6.719,34.783,0,42.424,0,51.515C0,61.66,8.169,69.829,18.314,69.829h63.373 C91.831,69.829,100,61.66,100,51.515C99.868,42.556,93.281,35.046,84.717,33.597z" fill="#bddeff" transform="scale(1)"></path>
</g><g transform="translate(-100 203.72223653124652) rotate(0)">
  <animateTransform attributeName="transform" type="translate" keyTimes="0;1" values="-100 203.72223653124652;1297 203.72223653124652" dur="16.666666666666668s" repeatCount="indefinite" begin="-2.98289323315184s"></animateTransform>
  <path d="M84.717,33.597c0.791-2.503,1.186-5.138,1.186-7.773C85.903,11.594,74.308,0,60.079,0 c-9.881,0-18.445,5.534-22.793,13.702c-1.581-0.527-3.426-0.791-5.138-0.791c-9.486,0-17.128,7.642-17.128,17.128 c0,1.186,0.132,2.372,0.395,3.426C6.719,34.783,0,42.424,0,51.515C0,61.66,8.169,69.829,18.314,69.829h63.373 C91.831,69.829,100,61.66,100,51.515C99.868,42.556,93.281,35.046,84.717,33.597z" fill="#bddeff" transform="scale(1)"></path>
</g></g>
</svg>